<?xml version="1.0" standalone="no"?><!DOCTYPE svg PUBLIC "-//W3C//DTD SVG 1.1//EN" "http://www.w3.org/Graphics/SVG/1.1/DTD/svg11.dtd"><svg t="1606034881946" class="icon" viewBox="0 0 1024 1024" version="1.1" xmlns="http://www.w3.org/2000/svg" p-id="1887" xmlns:xlink="http://www.w3.org/1999/xlink" width="200" height="200"><defs><style type="text/css"></style></defs><path d="M506.37499973 433.24999945L191.375 112.62499945c-22.50000027-22.50000027-56.25000027-22.50000027-84.375 1e-8l0 0c-22.50000027 22.50000027-22.50000027 56.25000027 0 84.375L427.625 512l-320.625 320.625c-22.50000027 22.50000027-22.50000027 56.25000027 0 84.375l0 0c22.50000027 22.50000027 56.25000027 22.50000027 84.375 0l320.625-320.625 320.625 320.625c22.50000027 22.50000027 56.25000027 22.50000027 84.375 0l0 0c22.50000027-22.50000027 22.50000027-56.25000027 0-84.375L590.74999973 512l320.625-320.625c22.50000027-22.50000027 22.50000027-56.25000027 0-84.375l0 0c-22.50000027-22.50000027-56.25000027-22.50000027-84.375 0L506.37499973 433.24999945 506.37499973 433.24999945z" p-id="1888"></path></svg>