<?xml version="1.0" standalone="no"?><!DOCTYPE svg PUBLIC "-//W3C//DTD SVG 1.1//EN" "http://www.w3.org/Graphics/SVG/1.1/DTD/svg11.dtd"><svg t="1606034440571" class="icon" viewBox="0 0 1024 1024" version="1.1" xmlns="http://www.w3.org/2000/svg" p-id="1629" xmlns:xlink="http://www.w3.org/1999/xlink" width="200" height="200"><defs><style type="text/css"></style></defs><path d="M902 32H302c-49.6875 0-90 40.3125-90 90v90H122c-49.6875 0-90 40.3125-90 90v600c0 49.6875 40.3125 90 90 90h600c49.6875 0 90-40.3125 90-90v-90h90c49.6875 0 90-40.3125 90-90V122c0-49.6875-40.3125-90-90-90z m-180 870H122V512h600v390z m180-180h-90V302c0-49.6875-40.3125-90-90-90H302V122h600v600z" p-id="1630"></path></svg>