<svg class="icon" viewBox="0 0 1024 1024" xmlns="http://www.w3.org/2000/svg" width="200" height="200"><defs><style/></defs><path d="M506.375 433.25l-315-320.625c-22.5-22.5-56.25-22.5-84.375 0-22.5 22.5-22.5 56.25 0 84.375l320.625 315L107 832.625c-22.5 22.5-22.5 56.25 0 84.375 22.5 22.5 56.25 22.5 84.375 0L512 596.375 832.625 917c22.5 22.5 56.25 22.5 84.375 0 22.5-22.5 22.5-56.25 0-84.375L590.75 512l320.625-320.625c22.5-22.5 22.5-56.25 0-84.375-22.5-22.5-56.25-22.5-84.375 0L506.375 433.25z"/></svg>